<svg version="1" xmlns="http://www.w3.org/2000/svg" width="933.333" height="933.333" viewBox="0 0 700.000000 700.000000"><path d="M327.8.5c-.1.1-3.7.5-7.8.9-9.7.8-22.2 2.3-28.5 3.6-2.7.5-6.1 1.2-7.5 1.4-8.3 1.4-19.9 4.2-30 7.1-13.1 3.8-37 12.2-38.5 13.6-.5.5-1.5.9-2.2.9-2.2 0-31.8 15.1-43.8 22.2C91.1 97.1 33 175.5 10.6 264.5c-2.1 8.4-3.2 13.8-6.1 29.5-.2 1.4-.8 5.8-2 15-2.7 20.6-2.7 67.3-.1 81.7.2 1 .7 4.5 1.1 7.8.4 3.2.9 6.8 1.1 8 .2 1.1.7 3.6 1 5.5 5.6 35.3 21.9 79.3 42.8 115.5 8.6 15 30.8 45.5 40 55.1 22.4 23.3 26.7 27.3 45.9 43 20.9 17 55.7 37.1 84.6 48.8 9.5 3.9 32.7 11.8 38.1 13.1.8.2 6.2 1.5 12 2.8 10.7 2.6 24.4 5.2 31.5 6.2 2.2.2 5.6.7 7.5 1 19.7 2.8 64.3 2.7 85.4-.2 3.4-.4 19.6-3.2 34.1-5.9 5.5-1.1 32.9-9.2 42.5-12.8 36-13.1 72-33.6 101.4-57.6 9.7-7.9 8.7-7 22.2-20.1 29-28.1 51-58 69-93.9 19.6-39.1 31.1-78.8 35.7-123.5 1.3-12.3 1.6-59.5.4-65.5-.3-1.4-.8-5.7-1.2-9.5-.4-3.9-1-8.8-1.5-11-.5-2.2-1.2-6.1-1.5-8.8-1.1-7.9-6.1-28.5-10-41.2-12.9-42.1-33.9-81.5-62.3-117.2-9.1-11.3-34.1-37.1-45.1-46.4-3.5-3-6.9-5.9-7.5-6.4-2.2-2-19.3-14.4-28.1-20.2-43.5-29-99.5-49.4-151-54.9-2.7-.3-6.3-.8-8-1C379 .9 328.4 0 327.8.5zM377 56.4c31.5 3.5 55.3 9.3 82.5 20.1 55.9 22.1 104.3 61.9 137.6 113 2.5 3.8 5.5 8.6 6.5 10.5 1 1.9 2.2 3.7 2.5 4 1.1 1 10.9 20.9 15.2 31 10.3 24.1 16.9 48.5 21.1 78 2.6 17.8 2.6 57.6.1 73.2-.2 1.3-.6 4.5-1 7.3-.3 2.7-1 6.8-1.5 9s-1.1 5.6-1.4 7.5c-1.3 8.5-7.4 29.3-13.2 45-3.9 10.8-17.6 39-22.5 46.5-1.8 2.7-4.9 7.5-6.8 10.5-4.3 6.7-19.7 27-24.7 32.5-36.8 40.6-77 67.4-127.4 84.9-9.5 3.2-16.3 5.1-32 8.6-11.8 2.6-14.7 3.1-26.2 4.6-16.9 2.1-46.9 2.6-61.8 1-16.3-1.8-21.7-2.6-31.9-4.8-5.1-1.1-10.3-2.1-11.5-2.4-5.7-1.1-27.5-7.9-36.6-11.4-37.1-14.5-69.5-35.2-98-62.7-29.9-28.8-51.3-59.8-67.3-97.3-5.5-13-13.5-37.1-15.2-46-.2-.8-.8-3.3-1.3-5.5-.9-3.5-3.1-15.9-4.7-26.8-1.9-13.7-2.5-46.1-1.1-62.2 5.2-59.1 28.1-115.3 65.5-161 19.1-23.2 43.5-45.2 66.6-60 3.3-2.1 7.1-4.5 8.5-5.5 4.5-3 25.3-13.8 35-18.1 23.7-10.5 54.3-18.8 82-22.4 1.4-.2 6.3-.7 11-1.1 4.7-.3 8.6-.7 8.8-.9.5-.4 38.4.4 43.2.9z"/><path d="M346.8 202.5c-.2.1-4.3.5-9.3.9-13.5.9-36.9 6.5-44.1 10.5-1.1.5-3.7 1.8-5.9 2.8-17.6 7.7-37.8 23.2-50.4 38.7-6 7.3-16.6 23.1-18 26.9-.5 1.2-2.3 5.1-3.9 8.7-2.9 6.3-7.6 19.9-8.6 25-.3 1.4-.7 3.6-1 5-2.1 9.8-2.7 16.3-2.8 29-.2 58.9 35.9 113.2 90.2 135.7 12.6 5.2 24 8.5 34.5 9.9 2.8.3 5.9.8 7 1 3.1.6 25.4.5 31.5-.1 4.3-.5 12.4-1.9 17-3 .3-.1 2.1-.5 4-.9 11.6-2.6 32.9-12.1 44.5-19.9 21.5-14.4 38.8-34 50-56.5 3.8-7.8 9.1-21.1 10-25.2.2-.8 1-4.2 1.8-7.5 1.5-5.8 2.6-11.6 3.3-18 .6-4.3.5-27.4 0-31.3-1.4-9.6-1.9-12.2-3.2-18.1-11.3-48.8-49.5-90.5-97.3-106.1-4.8-1.5-10.1-3-11.7-3.3-1.6-.3-4-.8-5.4-1.1-1.4-.3-3.8-.8-5.5-1.1-5.1-.9-26.2-2.4-26.7-2z"/></svg>